# File created by Blade
# Date/Time:  Wed Sep 24 19:53:44 2014
# Frame Rate: 120.000 fps
#------------------------------------------------------
:FULLY-SPECIFIED
:DEGREES
696
root -6.155305 32.843517 -4.133106 9.649814 -5.181147 -1.589423
Spine -15.093462 -21.292537 7.629273
Head -17.059243 30.731299 2.685923
LeftShoulder 4.325281 -10.924280 37.944237
LeftArm 97.240074 -8.553171 -56.653163
LeftForeArm -21.512357 -0.000000 89.081490
LeftHand -15.044551 0.000000 -5.385867
LeftHandThumb1 -26.253704 0.000000 33.147579
RightShoulder -17.350087 11.557779 -18.030481
RightArm -8.372396 -26.606169 86.507302
RightForeArm -21.417340 -0.000000 20.062798
RightHand -6.623713 0.000000 9.771790
RightHandThumb1 -24.326973 -0.000000 -32.862282
LeftUpLeg -1.716724 12.845271 4.122158
LeftLeg -2.188771 -0.000000 0.000000
LeftFoot -11.154510 6.960294 -18.382953
LeftToeBase 11.333009 -0.000000 -0.000000
RightUpLeg -6.218271 -2.347573 -3.148206
RightLeg 2.064343 -0.000000 -0.000000
RightFoot -7.335584 -2.623381 -13.805091
RightToeBase -1.439037 -0.000000 0.000000
697
root -6.153760 32.843199 -4.126960 9.696412 -5.169987 -1.611881
Spine -15.182836 -21.385199 7.706807
Head -16.760567 30.749880 2.734136
LeftShoulder 4.161497 -10.848775 38.441990
LeftArm 98.121018 -9.436516 -53.416069
LeftForeArm -19.561463 0.000000 89.031501
LeftHand -15.147047 -0.000000 -5.663948
LeftHandThumb1 -26.253704 0.000000 33.147579
RightShoulder -17.435923 11.525417 -18.049750
RightArm -8.383556 -26.406237 86.447451
RightForeArm -21.425285 -0.000000 19.953381
RightHand -6.652878 -0.000000 9.780119
RightHandThumb1 -24.326973 -0.000000 -32.862282
LeftUpLeg -1.744155 12.777937 4.141656
LeftLeg -2.200789 -0.000000 0.000000
LeftFoot -11.187206 6.975570 -18.433398
LeftToeBase 11.362088 -0.000000 -0.000000
RightUpLeg -6.239497 -2.372076 -3.125867
RightLeg 2.040992 -0.000000 -0.000000
RightFoot -7.324705 -2.602150 -13.794300
RightToeBase -1.449294 -0.000000 0.000000
698
root -6.153278 32.845277 -4.120311 9.751651 -5.170918 -1.642168
Spine -15.259327 -21.479771 7.767372
Head -16.499344 30.760859 2.832063
LeftShoulder 3.999255 -9.919550 38.713821
LeftArm 99.846716 -11.011556 -50.006337
LeftForeArm -17.957483 -0.000000 88.785339
LeftHand -15.064312 -0.000000 -5.773664
LeftHandThumb1 -26.253704 0.000000 33.147579
RightShoulder -17.543904 11.520541 -18.008827
RightArm -8.407047 -26.264451 86.343684
RightForeArm -21.473356 0.000000 19.884942
RightHand -6.665491 -0.000000 9.732265
RightHandThumb1 -24.326973 -0.000000 -32.862282
LeftUpLeg -1.782683 12.743850 4.165198
LeftLeg -2.204075 -0.000000 0.000000
LeftFoot -11.200842 7.007505 -18.436783
LeftToeBase 11.351212 -0.000000 -0.000000
RightUpLeg -6.267397 -2.375142 -3.096477
RightLeg 2.012111 -0.000000 -0.000000
RightFoot -7.287221 -2.572646 -13.729746
RightToeBase -1.461263 -0.000000 0.000000
699
root -6.151861 32.847707 -4.112880 9.797676 -5.170316 -1.669213
Spine -15.327155 -21.588193 7.834909
Head -16.294647 30.791447 2.901332
LeftShoulder 3.765901 -9.038799 39.077633
LeftArm 101.322537 -12.622751 -46.780289
LeftForeArm -16.328843 -0.000000 88.785474
LeftHand -15.285788 -0.000000 -6.252948
LeftHandThumb1 -26.253704 0.000000 33.147579
RightShoulder -17.649898 11.519725 -17.962141
RightArm -8.407666 -26.155341 86.238276
RightForeArm -21.617368 -0.000000 19.759858
RightHand -6.695093 -0.000000 9.668163
RightHandThumb1 -24.326973 -0.000000 -32.862282
LeftUpLeg -1.809020 12.700338 4.185852
LeftLeg -2.213273 -0.000000 0.000000
LeftFoot -11.197078 7.022086 -18.447336
LeftToeBase 11.352234 -0.000000 -0.000000
RightUpLeg -6.289122 -2.383338 -3.071592
RightLeg 1.992250 -0.000000 -0.000000
RightFoot -7.252093 -2.550956 -13.696290
RightToeBase -1.491997 -0.000000 0.000000
700
root -6.150027 32.851255 -4.105029 9.837114 -5.179688 -1.689911
Spine -15.374093 -21.665689 7.868038
Head -16.130516 30.829035 2.993529
LeftShoulder 3.537505 -8.170998 39.463955
LeftArm 102.702097 -14.352805 -43.546469
LeftForeArm -13.608205 -0.000000 88.904386
LeftHand -14.903498 -0.000000 -6.195702
LeftHandThumb1 -26.253704 0.000000 33.147579
RightShoulder -17.785409 11.512223 -17.868605
RightArm -8.424508 -25.970899 86.077360
RightForeArm -21.588912 -0.000000 19.748995
RightHand -6.742511 0.000000 9.756096
RightHandThumb1 -24.326973 -0.000000 -32.862282
LeftUpLeg -1.833672 12.666479 4.198778
LeftLeg -2.208550 -0.000000 0.000000
LeftFoot -11.195793 7.061542 -18.457420
LeftToeBase 11.362719 -0.000000 -0.000000
RightUpLeg -6.303767 -2.372395 -3.054542
RightLeg 1.965936 -0.000000 -0.000000
RightFoot -7.209602 -2.536473 -13.661778
RightToeBase -1.463048 -0.000000 0.000000
701
root -6.148748 32.854478 -4.097301 9.868992 -5.195528 -1.715087
Spine -15.422921 -21.745063 7.912436
Head -15.869488 30.807129 3.126051
LeftShoulder 3.317940 -7.423393 39.971945
LeftArm 103.815356 -15.946472 -40.638985
LeftForeArm -10.348604 -0.000000 89.238378
LeftHand -14.565544 0.000000 -6.278498
LeftHandThumb1 -26.253704 0.000000 33.147579
RightShoulder -17.923463 11.463025 -17.747300
RightArm -8.356557 -25.838337 85.868056
RightForeArm -21.577770 -0.000000 19.688724
RightHand -6.721186 -0.000000 9.803911
RightHandThumb1 -24.326973 -0.000000 -32.862282
LeftUpLeg -1.845392 12.638648 4.216585
LeftLeg -2.209782 -0.000000 0.000000
LeftFoot -11.198866 7.117679 -18.430615
LeftToeBase 11.348484 -0.000000 -0.000000
RightUpLeg -6.312164 -2.371120 -3.034055
RightLeg 1.942467 -0.000000 -0.000000
RightFoot -7.176351 -2.479380 -13.554682
RightToeBase -1.441819 -0.000000 0.000000
702
root -6.146583 32.857088 -4.087646 9.896732 -5.225793 -1.747661
Spine -15.476844 -21.841221 7.961685
Head -15.591393 30.801748 3.317054
LeftShoulder 3.044151 -6.838683 40.619587
LeftArm 104.746148 -17.176821 -38.181030
LeftForeArm -6.634025 -0.000000 89.801588
LeftHand -14.514634 -0.000000 -6.492173
LeftHandThumb1 -26.253704 0.000000 33.147579
RightShoulder -17.805382 11.504899 -17.582866
RightArm -8.558271 -25.390373 85.692421
RightForeArm -21.697429 -0.000000 19.814954
RightHand -6.784842 0.000000 9.832238
RightHandThumb1 -24.326973 -0.000000 -32.862282
LeftUpLeg -1.843264 12.629583 4.241546
LeftLeg -2.219870 -0.000000 0.000000
LeftFoot -11.195823 7.127144 -18.455084
LeftToeBase 11.380458 -0.000000 -0.000000
RightUpLeg -6.317766 -2.365857 -3.010560
RightLeg 1.924228 -0.000000 -0.000000
RightFoot -7.127012 -2.441880 -13.531028
RightToeBase -1.518790 -0.000000 0.000000
703
root -6.145290 32.860945 -4.077455 9.912975 -5.257024 -1.766597
Spine -15.545482 -21.913179 8.038899
Head -15.340007 30.794804 3.303473
LeftShoulder 2.824851 -6.394049 41.272056
LeftArm 105.480861 -18.052211 -36.132868
LeftForeArm -1.784882 0.000000 90.714047
LeftHand -14.292847 -0.000000 -7.180586
LeftHandThumb1 -26.253704 0.000000 33.147579
RightShoulder -18.098199 11.565008 -17.549529
RightArm -8.516038 -25.459948 85.560336
RightForeArm -21.647227 -0.000000 19.662651
RightHand -6.792858 -0.000000 9.767231
RightHandThumb1 -24.326973 -0.000000 -32.862282
LeftUpLeg -1.829280 12.606186 4.256958
LeftLeg -2.228944 -0.000000 0.000000
LeftFoot -11.199898 7.161137 -18.512876
LeftToeBase 11.421491 -0.000000 -0.000000
RightUpLeg -6.311335 -2.356352 -2.999866
RightLeg 1.905702 -0.000000 -0.000000
RightFoot -7.102596 -2.387861 -13.461283
RightToeBase -1.483237 -0.000000 0.000000
704
root -6.142404 32.863877 -4.067131 9.949782 -5.292290 -1.783340
Spine -15.660520 -21.957003 8.133993
Head -15.021920 30.779585 3.332696
LeftShoulder 2.602993 -6.030068 41.943976
LeftArm 106.141365 -18.643566 -34.419561
LeftForeArm 4.065094 -0.000000 91.850483
LeftHand -13.995292 -0.000000 -8.140394
LeftHandThumb1 -26.253704 0.000000 33.147579
RightShoulder -18.151479 11.460557 -17.413709
RightArm -8.486572 -25.209254 85.348115
RightForeArm -21.796711 -0.000000 19.705011
RightHand -6.932380 0.000000 9.657530
RightHandThumb1 -24.326973 -0.000000 -32.862282
LeftUpLeg -1.835105 12.597374 4.259655
LeftLeg -2.241085 -0.000000 0.000000
LeftFoot -11.200985 7.205776 -18.510107
LeftToeBase 11.406391 -0.000000 -0.000000
RightUpLeg -6.325187 -2.349651 -2.993294
RightLeg 1.883365 -0.000000 -0.000000
RightFoot -7.062201 -2.347720 -13.419435
RightToeBase -1.557259 -0.000000 0.000000
